####
#
# OBJ File Generated by Meshlab
#
####
# Object minbird.obj
#
# Vertices: 134
# Faces: 86
#
####
vn 0.000000 0.000000 1.000000
v 0.720161 1.414369 -0.007640 0.427451 0.262745 0.227451
vn 0.000000 0.000000 1.000000
v 0.970437 1.493291 -0.007640 0.427451 0.262745 0.227451
vn 0.000000 0.000000 1.000000
v 0.859709 1.500622 -0.007640 0.427451 0.262745 0.227451
vn 0.000000 0.000000 1.000000
v 1.088826 1.401371 -0.007640 0.427451 0.262745 0.227451
vn 0.000000 0.000000 1.000000
v 0.694484 1.251485 -0.007640 0.427451 0.262745 0.227451
vn 0.000000 0.000000 1.000000
v 1.097631 1.197287 -0.007640 0.427451 0.262745 0.227451
vn 0.000000 0.000000 1.000000
v 0.780751 1.111969 -0.007640 0.427451 0.262745 0.227451
vn 0.000000 0.000000 1.000000
v 0.957304 1.088151 -0.007640 0.427451 0.266667 0.231373
vn 0.000000 0.000000 1.000000
v 0.833753 1.385315 0.000000 0.000000 0.000000 0.000000
vn 0.000000 0.000000 1.000000
v 0.981629 1.419827 0.000000 0.000000 0.000000 0.000000
vn 0.000000 0.000000 1.000000
v 0.896820 1.431062 0.000000 0.000000 0.000000 0.000000
vn 0.000000 0.000000 1.000000
v 1.022859 1.354485 0.000000 0.000000 0.000000 0.000000
vn 0.000000 0.000000 1.000000
v 0.824180 1.315179 0.000000 0.000000 0.000000 0.000000
vn 0.000000 0.000000 1.000000
v 1.013286 1.284348 0.000000 0.000000 0.000000 0.000000
vn 0.000000 0.000000 1.000000
v 0.865410 1.249837 0.000000 0.000000 0.000000 0.000000
vn 0.000000 0.000000 1.000000
v 0.950219 1.238601 0.000000 0.000000 0.000000 0.000000
vn 0.000000 0.000000 1.000000
v 0.483516 1.278216 0.000000 1.000000 0.713725 0.294118
vn 0.000000 0.000000 1.000000
v 0.715473 1.200898 0.000000 1.000000 0.713725 0.294118
vn 0.000000 0.000000 1.000000
v 0.715473 1.355534 0.000000 1.000000 0.713725 0.294118
vn 0.000000 0.000000 1.000000
v 0.664335 0.811586 -0.000480 0.486275 0.301961 0.262745
vn 0.000000 0.000000 1.000000
v 1.021368 1.063437 -0.000480 0.486275 0.301961 0.262745
vn 0.000000 0.000000 1.000000
v 0.844186 1.110959 -0.000480 0.486275 0.301961 0.262745
vn 0.000000 0.000000 1.000000
v 1.130096 0.594176 -0.000480 0.486275 0.301961 0.262745
vn 0.000000 0.000000 1.000000
v 0.715320 0.469012 -0.000480 0.486275 0.301961 0.262745
vn -0.000000 0.000000 1.000000
v 0.844186 0.295731 -0.000480 0.486275 0.301961 0.262745
vn 0.000000 0.000000 1.000000
v 0.969758 0.308881 -0.000480 0.486275 0.301961 0.262745
vn -0.000000 0.000000 1.000000
v 0.821121 0.666064 0.000000 0.678431 0.494118 0.219608
vn -0.000000 0.000000 1.000000
v 0.934059 0.958361 0.000000 0.678431 0.494118 0.219608
vn -0.000000 0.000000 1.000000
v 0.852776 0.920199 0.000000 0.678431 0.494118 0.219608
vn 0.000000 0.000000 1.000000
v 0.982263 0.666063 0.000000 0.678431 0.494118 0.219608
vn 0.000000 0.000000 1.000000
v 0.866495 0.462612 0.000000 0.678431 0.494118 0.219608
vn 0.000000 0.000000 1.000000
v 0.931300 0.452622 0.000000 0.678431 0.494118 0.219608
vn 0.000000 0.000000 1.000000
v 1.010254 1.026637 0.000000 0.490196 0.305882 0.258824
vn 0.000000 0.000000 1.000000
v 1.679880 0.990641 0.000000 0.486275 0.301961 0.262745
vn 0.000000 0.000000 1.000000
v 1.276944 1.090410 0.000000 0.486275 0.301961 0.262745
vn 0.000000 0.000000 1.000000
v 1.008738 0.925309 0.000000 0.490196 0.305882 0.262745
vn 0.000000 0.000000 1.000000
v 1.846050 0.836598 0.000000 0.486275 0.301961 0.262745
vn 0.000000 0.000000 1.000000
v 1.146501 0.834164 0.000000 0.490196 0.305882 0.266667
vn 0.000000 0.000000 1.000000
v 0.014829 0.940425 0.000000 0.490196 0.305882 0.266667
vn 0.000000 0.000000 1.000000
v 0.670651 1.065224 0.000000 0.486275 0.301961 0.262745
vn 0.000000 0.000000 1.000000
v 0.337372 1.079201 0.000000 0.486275 0.301961 0.262745
vn 0.000000 0.000000 1.000000
v 0.796856 0.953848 0.000000 0.486275 0.301961 0.262745
vn 0.000000 0.000000 1.000000
v 0.582403 0.843982 0.000000 0.486275 0.305882 0.266667
vn 0.000000 0.000000 1.000000
v 0.028504 0.840423 0.000000 0.486275 0.305882 0.266667
vn -0.000000 0.000000 1.000000
v 0.095179 0.833998 0.010000 0.384314 0.243137 0.211765
vn -0.000000 0.000000 1.000000
v 0.121368 0.868896 0.010000 0.384314 0.243137 0.211765
vn -0.000000 0.000000 1.000000
v 0.104026 0.867212 0.010000 0.388235 0.243137 0.211765
vn 0.000000 0.000000 1.000000
v 0.131333 0.833998 0.010000 0.384314 0.243137 0.211765
vn 0.000000 0.000000 1.000000
v 0.105144 0.799099 0.010000 0.384314 0.243137 0.211765
vn 0.000000 0.000000 1.000000
v 0.122486 0.800783 0.010000 0.384314 0.243137 0.211765
vn -0.000000 0.000000 1.000000
v 0.195367 0.833998 0.010000 0.384314 0.243137 0.211765
vn -0.000000 0.000000 1.000000
v 0.221556 0.868896 0.010000 0.384314 0.243137 0.211765
vn -0.000000 0.000000 1.000000
v 0.204214 0.867212 0.010000 0.384314 0.243137 0.211765
vn 0.000000 0.000000 1.000000
v 0.231521 0.833997 0.010000 0.384314 0.243137 0.211765
vn 0.000000 0.000000 1.000000
v 0.205332 0.799099 0.010000 0.384314 0.243137 0.211765
vn 0.000000 0.000000 1.000000
v 0.222674 0.800783 0.010000 0.384314 0.243137 0.211765
vn -0.000000 0.000000 1.000000
v 0.286843 0.833997 0.010000 0.384314 0.243137 0.211765
vn -0.000000 0.000000 1.000000
v 0.313032 0.868896 0.010000 0.384314 0.243137 0.211765
vn -0.000000 0.000000 1.000000
v 0.295690 0.867212 0.010000 0.384314 0.243137 0.211765
vn 0.000000 0.000000 1.000000
v 0.322997 0.833998 0.010000 0.384314 0.243137 0.211765
vn -0.000000 0.000000 1.000000
v 0.296808 0.799099 0.010000 0.384314 0.243137 0.211765
vn 0.000000 0.000000 1.000000
v 0.314150 0.800784 0.010000 0.384314 0.243137 0.211765
vn -0.000000 0.000000 1.000000
v 0.378319 0.833997 0.010000 0.384314 0.243137 0.211765
vn -0.000000 0.000000 1.000000
v 0.404508 0.868896 0.010000 0.384314 0.243137 0.211765
vn -0.000000 0.000000 1.000000
v 0.387166 0.867212 0.010000 0.384314 0.243137 0.211765
vn 0.000000 0.000000 1.000000
v 0.414473 0.833998 0.010000 0.384314 0.243137 0.211765
vn -0.000000 0.000000 1.000000
v 0.388284 0.799099 0.010000 0.384314 0.243137 0.211765
vn 0.000000 0.000000 1.000000
v 0.405626 0.800784 0.010000 0.384314 0.243137 0.211765
vn -0.000000 0.000000 1.000000
v 0.469795 0.833997 0.010000 0.384314 0.243137 0.211765
vn -0.000000 0.000000 1.000000
v 0.495984 0.868896 0.010000 0.384314 0.243137 0.211765
vn -0.000000 0.000000 1.000000
v 0.478642 0.867212 0.010000 0.384314 0.243137 0.211765
vn 0.000000 0.000000 1.000000
v 0.505949 0.833997 0.010000 0.384314 0.243137 0.211765
vn 0.000000 0.000000 1.000000
v 0.479760 0.799099 0.010000 0.384314 0.243137 0.211765
vn 0.000000 0.000000 1.000000
v 0.497102 0.800783 0.010000 0.384314 0.243137 0.211765
vn -0.000000 0.000000 1.000000
v 1.306147 0.814400 0.010000 0.384314 0.243137 0.211765
vn -0.000000 0.000000 1.000000
v 1.332335 0.849298 0.010000 0.384314 0.243137 0.211765
vn -0.000000 0.000000 1.000000
v 1.314993 0.847614 0.010000 0.384314 0.243137 0.211765
vn 0.000000 0.000000 1.000000
v 1.342301 0.814400 0.010000 0.384314 0.243137 0.211765
vn 0.000000 0.000000 1.000000
v 1.316112 0.779501 0.010000 0.384314 0.243137 0.211765
vn 0.000000 0.000000 1.000000
v 1.333454 0.781186 0.010000 0.384314 0.243137 0.211765
vn -0.000000 0.000000 1.000000
v 1.397622 0.814400 0.010000 0.384314 0.243137 0.211765
vn -0.000000 0.000000 1.000000
v 1.423811 0.849298 0.010000 0.384314 0.243137 0.211765
vn -0.000000 0.000000 1.000000
v 1.406469 0.847614 0.010000 0.384314 0.243137 0.211765
vn 0.000000 0.000000 1.000000
v 1.433777 0.814400 0.010000 0.384314 0.243137 0.211765
vn 0.000000 0.000000 1.000000
v 1.407588 0.779501 0.010000 0.384314 0.243137 0.211765
vn 0.000000 0.000000 1.000000
v 1.424930 0.781186 0.010000 0.384314 0.243137 0.211765
vn -0.000000 0.000000 1.000000
v 1.489098 0.814400 0.010000 0.384314 0.243137 0.211765
vn -0.000000 0.000000 1.000000
v 1.515287 0.849298 0.010000 0.384314 0.243137 0.211765
vn -0.000000 0.000000 1.000000
v 1.497945 0.847614 0.010000 0.384314 0.243137 0.211765
vn 0.000000 0.000000 1.000000
v 1.525253 0.814400 0.010000 0.384314 0.243137 0.211765
vn 0.000000 0.000000 1.000000
v 1.499064 0.779501 0.010000 0.384314 0.243137 0.211765
vn 0.000000 0.000000 1.000000
v 1.516406 0.781186 0.010000 0.384314 0.243137 0.211765
vn -0.000000 0.000000 1.000000
v 1.580574 0.814400 0.010000 0.384314 0.243137 0.211765
vn -0.000000 0.000000 1.000000
v 1.606763 0.849298 0.010000 0.384314 0.243137 0.211765
vn -0.000000 0.000000 1.000000
v 1.589421 0.847614 0.010000 0.384314 0.243137 0.211765
vn 0.000000 0.000000 1.000000
v 1.616729 0.814400 0.010000 0.384314 0.243137 0.211765
vn 0.000000 0.000000 1.000000
v 1.590540 0.779501 0.010000 0.384314 0.243137 0.211765
vn 0.000000 0.000000 1.000000
v 1.607882 0.781186 0.010000 0.384314 0.243137 0.211765
vn -0.000000 0.000000 1.000000
v 1.214671 0.814400 0.010000 0.384314 0.243137 0.211765
vn -0.000000 0.000000 1.000000
v 1.240859 0.849298 0.010000 0.384314 0.243137 0.211765
vn -0.000000 0.000000 1.000000
v 1.223517 0.847614 0.010000 0.384314 0.243137 0.211765
vn 0.000000 0.000000 1.000000
v 1.250825 0.814400 0.010000 0.384314 0.243137 0.211765
vn 0.000000 0.000000 1.000000
v 1.224636 0.779501 0.010000 0.384314 0.243137 0.211765
vn 0.000000 0.000000 1.000000
v 1.241978 0.781186 0.010000 0.384314 0.243137 0.211765
vn 0.000000 0.000000 1.000000
v 0.797166 0.080101 0.000000 1.000000 0.929412 0.247059
vn 0.000000 0.000000 1.000000
v 0.849399 0.377181 0.000000 1.000000 0.929412 0.247059
vn 0.000000 0.000000 1.000000
v 0.823362 0.379458 0.000000 1.000000 0.929412 0.247059
vn 0.000000 0.000000 1.000000
v 0.823203 0.077824 0.000000 1.000000 0.929412 0.247059
vn 0.000000 0.000000 1.000000
v 0.967032 0.376614 0.000000 1.000000 0.929412 0.247059
vn 0.000000 0.000000 1.000000
v 1.019264 0.079535 0.000000 1.000000 0.929412 0.247059
vn 0.000000 0.000000 1.000000
v 0.993068 0.378891 0.000000 1.000000 0.929412 0.247059
vn 0.000000 0.000000 1.000000
v 0.993228 0.077257 0.000000 1.000000 0.929412 0.247059
vn 0.000000 0.000000 1.000000
v 0.797148 0.090964 -0.010000 1.000000 0.929412 0.247059
vn 0.000000 0.000000 1.000000
v 0.851865 0.025173 -0.010000 1.000000 0.929412 0.247059
vn 0.000000 0.000000 1.000000
v 0.816887 0.100167 -0.010000 1.000000 0.929412 0.247059
vn 0.000000 0.000000 1.000000
v 0.832125 0.015971 -0.010000 1.000000 0.929412 0.247059
vn 0.000000 0.000000 1.000000
v 0.962677 0.016463 0.005000 1.000000 0.929412 0.247059
vn 0.000000 0.000000 1.000000
v 1.017394 0.082254 0.005000 1.000000 0.929412 0.247059
vn 0.000000 0.000000 1.000000
v 0.997655 0.091457 0.005000 1.000000 0.929412 0.247059
vn 0.000000 0.000000 1.000000
v 0.982416 0.007260 0.005000 1.000000 0.929412 0.247059
vn 0.000000 0.000000 1.000000
v 0.683892 0.021775 0.005000 1.000000 0.929412 0.266667
vn 0.000000 0.000000 1.000000
v 0.823044 0.076954 0.005000 1.000000 0.929412 0.247059
vn 0.000000 0.000000 1.000000
v 0.812154 0.095812 0.005000 1.000000 0.929412 0.247059
vn 0.000000 0.000000 1.000000
v 0.694782 0.002917 0.005000 1.000000 0.929412 0.266667
vn 0.000000 0.000000 1.000000
v 0.997524 0.076954 -0.010000 1.000000 0.933333 0.274510
vn 0.000000 0.000000 1.000000
v 1.136676 0.021776 -0.010000 1.000000 0.929412 0.247059
vn 0.000000 0.000000 1.000000
v 1.008414 0.095812 -0.010000 1.000000 0.929412 0.262745
vn 0.000000 0.000000 1.000000
v 1.125786 0.002917 -0.010000 1.000000 0.929412 0.247059
vn 0.000000 0.000000 1.000000
v 0.934737 1.392125 0.004304 1.000000 0.996078 0.980392
vn 0.000000 0.000000 1.000000
v 1.006380 1.394532 0.004304 1.000000 0.996078 0.980392
vn 0.000000 0.000000 1.000000
v 0.971388 1.417874 0.004304 1.000000 0.996078 0.980392
vn 0.000000 0.000000 1.000000
v 1.008038 1.351575 0.004304 1.000000 0.996078 0.980392
vn 0.000000 0.000000 1.000000
v 0.936395 1.349167 0.004304 1.000000 0.996078 0.980392
vn 0.000000 0.000000 1.000000
v 0.971388 1.325826 0.004304 1.000000 0.996078 0.980392
# 134 vertices, 0 vertices normals

f 1//1 2//2 3//3
f 1//1 4//4 2//2
f 5//5 4//4 1//1
f 5//5 6//6 4//4
f 7//7 6//6 5//5
f 7//7 8//8 6//6
f 9//9 10//10 11//11
f 9//9 12//12 10//10
f 13//13 12//12 9//9
f 13//13 14//14 12//12
f 15//15 14//14 13//13
f 15//15 16//16 14//14
f 17//17 18//18 19//19
f 20//20 21//21 22//22
f 20//20 23//23 21//21
f 24//24 23//23 20//20
f 25//25 23//23 24//24
f 25//25 26//26 23//23
f 27//27 28//28 29//29
f 27//27 30//30 28//28
f 31//31 30//30 27//27
f 31//31 32//32 30//30
f 33//33 34//34 35//35
f 36//36 34//34 33//33
f 36//36 37//37 34//34
f 38//38 37//37 36//36
f 39//39 40//40 41//41
f 39//39 42//42 40//40
f 39//39 43//43 42//42
f 44//44 43//43 39//39
f 45//45 46//46 47//47
f 45//45 48//48 46//46
f 49//49 48//48 45//45
f 49//49 50//50 48//48
f 51//51 52//52 53//53
f 51//51 54//54 52//52
f 55//55 54//54 51//51
f 55//55 56//56 54//54
f 57//57 58//58 59//59
f 57//57 60//60 58//58
f 61//61 60//60 57//57
f 61//61 62//62 60//60
f 63//63 64//64 65//65
f 63//63 66//66 64//64
f 67//67 66//66 63//63
f 67//67 68//68 66//66
f 69//69 70//70 71//71
f 69//69 72//72 70//70
f 73//73 72//72 69//69
f 73//73 74//74 72//72
f 75//75 76//76 77//77
f 75//75 78//78 76//76
f 79//79 78//78 75//75
f 79//79 80//80 78//78
f 81//81 82//82 83//83
f 81//81 84//84 82//82
f 85//85 84//84 81//81
f 85//85 86//86 84//84
f 87//87 88//88 89//89
f 87//87 90//90 88//88
f 91//91 90//90 87//87
f 91//91 92//92 90//90
f 93//93 94//94 95//95
f 93//93 96//96 94//94
f 97//97 96//96 93//93
f 97//97 98//98 96//96
f 99//99 100//100 101//101
f 99//99 102//102 100//100
f 103//103 102//102 99//99
f 103//103 104//104 102//102
f 105//105 106//106 107//107
f 105//105 108//108 106//106
f 109//109 110//110 111//111
f 112//112 110//110 109//109
f 113//113 114//114 115//115
f 116//116 114//114 113//113
f 117//117 118//118 119//119
f 117//117 120//120 118//118
f 121//121 122//122 123//123
f 121//121 124//124 122//122
f 125//125 126//126 127//127
f 128//128 126//126 125//125
f 129//129 130//130 131//131
f 129//129 132//132 130//130
f 133//133 132//132 129//129
f 133//133 134//134 132//132
# 86 faces, 0 coords texture

# End of File
