####
#
# OBJ File Generated by Meshlab
#
####
# Object fish-min.obj
#
# Vertices: 19
# Faces: 11
#
####
vn -0.000000 0.000000 1.000000
v 0.019563 1.214661 0.000000 0.784314 0.258824 0.262745
vn -0.000000 0.000000 1.000000
v 0.504947 1.713037 0.000000 0.784314 0.258824 0.262745
vn -0.000000 0.000000 1.000000
v 0.175179 1.672704 0.000000 0.784314 0.258824 0.262745
vn 0.000000 0.000000 1.000000
v 0.700335 1.134072 0.000000 0.784314 0.258824 0.262745
vn 0.000000 0.000000 1.000000
v 0.106314 0.694611 0.000000 0.784314 0.258824 0.262745
vn 0.000000 0.000000 1.000000
v 0.471447 0.523827 0.000000 0.784314 0.258824 0.262745
vn 0.000000 0.000000 1.000000
v 0.047650 0.175902 0.100000 0.784314 0.490196 0.200000
vn 0.000000 0.000000 1.000000
v 0.663676 0.175902 0.100000 0.784314 0.494118 0.211765
vn 0.000000 0.000000 1.000000
v 0.355663 0.703610 0.100000 0.784314 0.490196 0.200000
vn 0.000000 0.000000 1.000000
v 0.443167 1.538022 0.010000 1.000000 0.960784 0.976471
vn 0.000000 0.000000 1.000000
v 0.579775 1.452613 0.010000 1.000000 0.960784 0.976471
vn 0.000000 0.000000 1.000000
v 0.532049 1.533142 0.010000 1.000000 0.960784 0.976471
vn 0.000000 0.000000 1.000000
v 0.388839 1.452613 0.010000 1.000000 0.960784 0.976471
vn 0.000000 0.000000 1.000000
v 0.525446 1.367205 0.010000 1.000000 0.960784 0.976471
vn 0.000000 0.000000 1.000000
v 0.436565 1.372084 0.010000 1.000000 0.960784 0.976471
vn 0.000000 0.000000 1.000000
v 0.441309 1.527575 0.020000 0.000000 0.000000 0.000000
vn 0.000000 0.000000 1.000000
v 0.528726 1.432908 0.020000 0.000000 0.000000 0.000000
vn 0.000000 0.000000 1.000000
v 0.528730 1.533625 0.020000 0.000000 0.000000 0.000000
vn 0.000000 0.000000 1.000000
v 0.438829 1.453876 0.020000 0.000000 0.000000 0.000000
# 19 vertices, 0 vertices normals

f 1//1 2//2 3//3
f 1//1 4//4 2//2
f 5//5 4//4 1//1
f 5//5 6//6 4//4
f 7//7 8//8 9//9
f 10//10 11//11 12//12
f 13//13 11//11 10//10
f 13//13 14//14 11//11
f 15//15 14//14 13//13
f 16//16 17//17 18//18
f 19//19 17//17 16//16
# 11 faces, 0 coords texture

# End of File
