####
#
# OBJ File Generated by Meshlab
#
####
# Object minslugprojectile.obj
#
# Vertices: 31
# Faces: 13
#
####
vn 0.000000 0.000000 1.000000
v 0.564921 1.541541 0.000000 0.298039 0.203922 0.380392
vn 0.000000 0.000000 1.000000
v 1.541880 1.345489 0.000000 0.298039 0.203922 0.380392
vn 0.000000 0.000000 1.000000
v 1.090713 1.624575 0.000000 0.298039 0.203922 0.380392
vn 0.000000 0.000000 1.000000
v 0.257751 0.955780 0.000000 0.298039 0.203922 0.380392
vn 0.000000 0.000000 1.000000
v 1.588213 0.644651 0.000000 0.298039 0.203922 0.380392
vn 0.000000 0.000000 1.000000
v 0.560738 0.372333 0.000000 0.298039 0.203922 0.380392
vn 0.000000 0.000000 1.000000
v 1.124578 0.287545 0.000000 0.298039 0.203922 0.380392
vn 0.000000 0.000000 1.000000
v 0.713203 1.490976 0.010000 0.694118 0.462745 0.250980
vn 0.000000 0.000000 1.000000
v 1.197514 1.490976 0.010000 0.694118 0.462745 0.250980
vn 0.000000 0.000000 1.000000
v 0.955358 1.910313 0.010000 0.694118 0.462745 0.250980
vn -0.000000 0.000000 1.000000
v 0.955358 0.000000 0.010000 0.694118 0.462745 0.250980
vn -0.000000 0.000000 1.000000
v 1.197514 0.419337 0.010000 0.694118 0.462745 0.250980
vn -0.000000 0.000000 1.000000
v 0.713203 0.419337 0.010000 0.694118 0.462745 0.250980
vn 0.000000 0.000000 1.000000
v 0.000000 0.955157 0.100000 0.690196 0.458824 0.250980
vn 0.000000 0.000000 1.000000
v 0.419426 0.713052 0.100000 0.694118 0.462745 0.250980
vn 0.000000 0.000000 1.000000
v 0.419426 1.197261 0.100000 0.694118 0.462745 0.250980
vn 0.000000 0.000000 1.000000
v 1.491291 0.713052 0.100000 0.686275 0.458824 0.254902
vn 0.000000 0.000000 1.000000
v 1.910717 0.955157 0.100000 0.694118 0.462745 0.250980
vn 0.000000 0.000000 1.000000
v 1.491291 1.197261 0.100000 0.694118 0.462745 0.250980
vn 0.000000 0.000000 1.000000
v 0.416273 1.151739 0.050000 0.694118 0.462745 0.250980
vn 0.000000 0.000000 1.000000
v 0.758734 1.494128 0.050000 0.694118 0.462745 0.250980
vn 0.000000 0.000000 1.000000
v 0.290925 1.619449 0.050000 0.694118 0.462745 0.250980
vn 0.000000 0.000000 1.000000
v 1.150613 1.494128 0.050000 0.694118 0.462745 0.250980
vn 0.000000 0.000000 1.000000
v 1.493071 1.151739 0.050000 0.694118 0.462745 0.250980
vn 0.000000 0.000000 1.000000
v 1.618419 1.619449 0.050000 0.694118 0.462745 0.250980
vn 0.000000 0.000000 1.000000
v 0.290925 0.292236 0.050000 0.694118 0.462745 0.250980
vn 0.000000 0.000000 1.000000
v 0.758734 0.417557 0.050000 0.694118 0.462745 0.250980
vn 0.000000 0.000000 1.000000
v 0.416273 0.759943 0.050000 0.694118 0.462745 0.250980
vn 0.000000 0.000000 1.000000
v 1.150613 0.417557 0.050000 0.694118 0.462745 0.250980
vn 0.000000 0.000000 1.000000
v 1.618421 0.292236 0.050000 0.694118 0.462745 0.250980
vn 0.000000 0.000000 1.000000
v 1.493071 0.759943 0.050000 0.694118 0.462745 0.250980
# 31 vertices, 0 vertices normals

f 1//1 2//2 3//3
f 4//4 2//2 1//1
f 4//4 5//5 2//2
f 6//6 5//5 4//4
f 6//6 7//7 5//5
f 8//8 9//9 10//10
f 11//11 12//12 13//13
f 14//14 15//15 16//16
f 17//17 18//18 19//19
f 20//20 21//21 22//22
f 23//23 24//24 25//25
f 26//26 27//27 28//28
f 29//29 30//30 31//31
# 13 faces, 0 coords texture

# End of File
