# Blender v2.91.2 OBJ File: ''
# www.blender.org
mtllib shell-min.mtl
o shell
v 2.702965 2.182090 0.002000
v 2.632032 1.923393 0.002000
v 2.499514 1.697013 0.002000
v 2.315163 1.512702 0.002000
v 2.088736 1.380211 0.002000
v 1.829984 1.309293 0.002000
v 1.553086 1.309294 0.002000
v 1.294334 1.380211 0.002000
v 1.067906 1.512702 0.002000
v 0.883556 1.697013 0.002000
v 0.751038 1.923393 0.002000
v 0.680105 2.182090 0.002000
v 0.680105 2.458930 0.002000
v 0.751038 2.717627 0.002000
v 0.883556 2.944007 0.002000
v 1.067906 3.128318 0.002002
v 1.294334 3.260808 0.002002
v 1.553086 3.331726 0.002002
v 1.829984 3.331726 0.002002
v 2.088736 3.260808 0.002002
v 2.315164 3.128318 0.002002
v 2.499514 2.944007 0.002000
v 2.632032 2.717627 0.002000
v 2.702965 2.458930 0.002000
vn 0.0000 0.0000 -1.0000
usemtl Default_OBJ.002
s off
f 2//1 3//1 4//1 5//1 6//1 7//1 8//1 9//1 10//1 11//1 12//1 13//1 14//1 15//1 16//1 17//1 18//1 19//1 20//1 21//1 22//1 23//1 24//1 1//1