####
#
# OBJ File Generated by Meshlab
#
####
# Object slugprojectile.obj
#
# Vertices: 49
# Faces: 31
#
####
vn 0.000000 0.000000 1.000000
v 0.819562 1.618608 0.000000 0.298039 0.203922 0.380392
vn 0.000000 0.000000 1.000000
v 1.177088 1.595028 0.000000 0.298039 0.203922 0.380392
vn 0.000000 0.000000 1.000000
v 1.001388 1.630741 0.000000 0.298039 0.203922 0.380392
vn 0.000000 0.000000 1.000000
v 0.652547 1.560789 0.000000 0.298039 0.203922 0.380392
vn 0.000000 0.000000 1.000000
v 1.333552 1.516679 0.000000 0.298039 0.203922 0.380392
vn 0.000000 0.000000 1.000000
v 0.508333 1.463503 0.000000 0.298039 0.203922 0.380392
vn 0.000000 0.000000 1.000000
v 1.463814 1.402085 0.000000 0.298039 0.203922 0.380392
vn 0.000000 0.000000 1.000000
v 0.393716 1.333268 0.000000 0.298039 0.203922 0.380392
vn 0.000000 0.000000 1.000000
v 1.561120 1.257902 0.000000 0.298039 0.203922 0.380392
vn 0.000000 0.000000 1.000000
v 0.315352 1.176838 0.000000 0.298039 0.203922 0.380392
vn 0.000000 0.000000 1.000000
v 1.618951 1.090923 0.000000 0.298039 0.203922 0.380392
vn 0.000000 0.000000 1.000000
v 0.279631 1.001177 0.000000 0.298039 0.203922 0.380392
vn 0.000000 0.000000 1.000000
v 1.631086 0.909136 0.000000 0.298039 0.203922 0.380392
vn 0.000000 0.000000 1.000000
v 0.285790 0.863522 0.000000 0.298039 0.203922 0.380392
vn -0.000000 0.000000 1.000000
v 0.315352 0.733475 0.000000 0.298039 0.203922 0.380392
vn 0.000000 0.000000 1.000000
v 1.595365 0.733475 0.000000 0.298039 0.203922 0.380392
vn -0.000000 0.000000 1.000000
v 0.393716 0.577044 0.000000 0.298039 0.203922 0.380392
vn 0.000000 0.000000 1.000000
v 1.517000 0.577044 0.000000 0.298039 0.203922 0.380392
vn -0.000000 0.000000 1.000000
v 0.508333 0.446810 0.000000 0.298039 0.203922 0.380392
vn 0.000000 0.000000 1.000000
v 1.402384 0.446811 0.000000 0.298039 0.203922 0.380392
vn -0.000000 0.000000 1.000000
v 0.652547 0.349524 0.000000 0.298039 0.203922 0.380392
vn 0.000000 0.000000 1.000000
v 1.258169 0.349524 0.000000 0.298039 0.203922 0.380392
vn 0.000000 0.000000 1.000000
v 0.819563 0.291704 0.000000 0.298039 0.203922 0.380392
vn 0.000000 0.000000 1.000000
v 1.091154 0.291704 0.000000 0.298039 0.203922 0.380392
vn -0.000000 0.000000 1.000000
v 0.955358 0.279558 0.000000 0.298039 0.203922 0.380392
vn 0.000000 0.000000 1.000000
v 0.713203 1.490976 0.010000 0.694118 0.462745 0.250980
vn 0.000000 0.000000 1.000000
v 1.197514 1.490976 0.010000 0.694118 0.462745 0.250980
vn 0.000000 0.000000 1.000000
v 0.955358 1.910313 0.010000 0.694118 0.462745 0.250980
vn -0.000000 0.000000 1.000000
v 0.955358 0.000000 0.010000 0.694118 0.462745 0.250980
vn -0.000000 0.000000 1.000000
v 1.197514 0.419337 0.010000 0.694118 0.462745 0.250980
vn -0.000000 0.000000 1.000000
v 0.713203 0.419337 0.010000 0.694118 0.462745 0.250980
vn 0.000000 0.000000 1.000000
v 0.000000 0.955157 0.100000 0.690196 0.458824 0.250980
vn 0.000000 0.000000 1.000000
v 0.419426 0.713052 0.100000 0.694118 0.462745 0.250980
vn 0.000000 0.000000 1.000000
v 0.419426 1.197261 0.100000 0.694118 0.462745 0.250980
vn 0.000000 0.000000 1.000000
v 1.491291 0.713052 0.100000 0.686275 0.458824 0.254902
vn 0.000000 0.000000 1.000000
v 1.910717 0.955157 0.100000 0.694118 0.462745 0.250980
vn 0.000000 0.000000 1.000000
v 1.491291 1.197261 0.100000 0.694118 0.462745 0.250980
vn 0.000000 0.000000 1.000000
v 0.416273 1.151739 0.050000 0.694118 0.462745 0.250980
vn 0.000000 0.000000 1.000000
v 0.758734 1.494128 0.050000 0.694118 0.462745 0.250980
vn 0.000000 0.000000 1.000000
v 0.290925 1.619449 0.050000 0.694118 0.462745 0.250980
vn 0.000000 0.000000 1.000000
v 1.150613 1.494128 0.050000 0.694118 0.462745 0.250980
vn 0.000000 0.000000 1.000000
v 1.493071 1.151739 0.050000 0.694118 0.462745 0.250980
vn 0.000000 0.000000 1.000000
v 1.618419 1.619449 0.050000 0.694118 0.462745 0.250980
vn 0.000000 0.000000 1.000000
v 0.290925 0.292236 0.050000 0.694118 0.462745 0.250980
vn 0.000000 0.000000 1.000000
v 0.758734 0.417557 0.050000 0.694118 0.462745 0.250980
vn 0.000000 0.000000 1.000000
v 0.416273 0.759943 0.050000 0.694118 0.462745 0.250980
vn 0.000000 0.000000 1.000000
v 1.150613 0.417557 0.050000 0.694118 0.462745 0.250980
vn 0.000000 0.000000 1.000000
v 1.618421 0.292236 0.050000 0.694118 0.462745 0.250980
vn 0.000000 0.000000 1.000000
v 1.493071 0.759943 0.050000 0.694118 0.462745 0.250980
# 49 vertices, 0 vertices normals

f 1//1 2//2 3//3
f 4//4 2//2 1//1
f 4//4 5//5 2//2
f 6//6 5//5 4//4
f 6//6 7//7 5//5
f 8//8 7//7 6//6
f 8//8 9//9 7//7
f 10//10 9//9 8//8
f 10//10 11//11 9//9
f 12//12 11//11 10//10
f 12//12 13//13 11//11
f 14//14 13//13 12//12
f 15//15 13//13 14//14
f 15//15 16//16 13//13
f 17//17 16//16 15//15
f 17//17 18//18 16//16
f 19//19 18//18 17//17
f 19//19 20//20 18//18
f 21//21 20//20 19//19
f 21//21 22//22 20//20
f 23//23 22//22 21//21
f 23//23 24//24 22//22
f 25//25 24//24 23//23
f 26//26 27//27 28//28
f 29//29 30//30 31//31
f 32//32 33//33 34//34
f 35//35 36//36 37//37
f 38//38 39//39 40//40
f 41//41 42//42 43//43
f 44//44 45//45 46//46
f 47//47 48//48 49//49
# 31 faces, 0 coords texture

# End of File
