####
#
# OBJ File Generated by Meshlab
#
####
# Object slug.obj
#
# Vertices: 80
# Faces: 70
#
####
vn 0.000000 0.000000 1.000000
v 0.496852 0.506622 0.015000 0.349020 0.125490 0.533333
vn 0.000000 0.000000 1.000000
v 1.210840 0.522320 0.015000 0.349020 0.125490 0.533333
vn 0.000000 0.000000 1.000000
v 0.781658 0.533903 0.015000 0.349020 0.125490 0.533333
vn 0.000000 0.000000 1.000000
v 1.509238 0.467484 0.015000 0.349020 0.125490 0.533333
vn 0.000000 0.000000 1.000000
v 0.302423 0.467484 0.015000 0.349020 0.125490 0.533333
vn 0.000000 0.000000 1.000000
v 1.663367 0.414973 0.015000 0.349020 0.125490 0.533333
vn 0.000000 0.000000 1.000000
v 0.148293 0.414973 0.015000 0.349020 0.125490 0.533333
vn 0.000000 0.000000 1.000000
v 1.767387 0.351913 0.015000 0.349020 0.125490 0.533333
vn 0.000000 0.000000 1.000000
v 0.044273 0.351913 0.015000 0.349020 0.125490 0.533333
vn 0.000000 0.000000 1.000000
v 1.811643 0.284090 0.015000 0.349020 0.125490 0.533333
vn 0.000000 0.000000 1.000000
v 0.000017 0.284090 0.015000 0.352941 0.133333 0.533333
vn 0.000000 0.000000 1.000000
v 0.008274 0.231113 0.015000 0.352941 0.129412 0.533333
vn 0.000000 0.000000 1.000000
v 1.803386 0.231113 0.015000 0.349020 0.125490 0.533333
vn 0.000000 0.000000 1.000000
v 1.767387 0.182846 0.015000 0.349020 0.125490 0.533333
vn 0.000000 0.000000 1.000000
v 0.044273 0.182845 0.015000 0.349020 0.125490 0.533333
vn 0.000000 0.000000 1.000000
v 1.663368 0.119786 0.015000 0.349020 0.125490 0.533333
vn 0.000000 0.000000 1.000000
v 0.148293 0.119786 0.015000 0.349020 0.125490 0.533333
vn -0.000000 0.000000 1.000000
v 0.302423 0.067274 0.015000 0.349020 0.125490 0.533333
vn 0.000000 0.000000 1.000000
v 1.509238 0.067274 0.015000 0.349020 0.125490 0.533333
vn 0.000000 0.000000 1.000000
v 0.496852 0.028136 0.015000 0.349020 0.125490 0.533333
vn 0.000000 0.000000 1.000000
v 1.314809 0.028136 0.015000 0.349020 0.125490 0.533333
vn 0.000000 0.000000 1.000000
v 0.781658 0.000855 0.015000 0.349020 0.125490 0.533333
vn 0.000000 0.000000 1.000000
v 1.089337 0.004886 0.015000 0.349020 0.125490 0.533333
vn 0.000000 0.000000 1.000000
v 1.495339 0.412039 0.010000 0.690196 0.694118 0.258824
vn 0.000000 0.000000 1.000000
v 1.666999 0.830381 0.010000 0.682353 0.686275 0.215686
vn 0.000000 0.000000 1.000000
v 1.611446 0.845263 0.010000 0.682353 0.686275 0.215686
vn 0.000000 0.000000 1.000000
v 1.550893 0.397156 0.010000 0.686275 0.690196 0.239216
vn 0.000000 0.000000 1.000000
v 1.616119 0.395054 0.010000 0.690196 0.694118 0.250980
vn 0.000000 0.000000 1.000000
v 1.823594 0.796846 0.010000 0.682353 0.686275 0.219608
vn 0.000000 0.000000 1.000000
v 1.769549 0.816513 0.010000 0.682353 0.686275 0.219608
vn 0.000000 0.000000 1.000000
v 1.670163 0.375388 0.010000 0.686275 0.690196 0.223529
vn 0.000000 0.000000 1.000000
v 1.643255 0.899723 0.015000 0.349020 0.125490 0.533333
vn 0.000000 0.000000 1.000000
v 1.673684 0.901730 0.015000 0.349020 0.125490 0.533333
vn 0.000000 0.000000 1.000000
v 1.658209 0.902763 0.015000 0.349020 0.125490 0.533333
vn 0.000000 0.000000 1.000000
v 1.687899 0.896809 0.015000 0.349020 0.125490 0.533333
vn 0.000000 0.000000 1.000000
v 1.629938 0.893055 0.015000 0.349020 0.125490 0.533333
vn 0.000000 0.000000 1.000000
v 1.700173 0.888529 0.015000 0.349020 0.125490 0.533333
vn 0.000000 0.000000 1.000000
v 1.618852 0.883302 0.015000 0.349020 0.125490 0.533333
vn 0.000000 0.000000 1.000000
v 1.709928 0.877445 0.015000 0.349020 0.125490 0.533333
vn 0.000000 0.000000 1.000000
v 1.610570 0.871030 0.015000 0.349020 0.125490 0.533333
vn 0.000000 0.000000 1.000000
v 1.716598 0.864131 0.015000 0.349020 0.125490 0.533333
vn 0.000000 0.000000 1.000000
v 1.605647 0.856818 0.015000 0.349020 0.125490 0.533333
vn 0.000000 0.000000 1.000000
v 1.719638 0.849180 0.015000 0.349020 0.125490 0.533333
vn 0.000000 0.000000 1.000000
v 1.604614 0.845263 0.015000 0.349020 0.125490 0.533333
vn -0.000000 0.000000 1.000000
v 1.605139 0.837464 0.015000 0.349020 0.125490 0.533333
vn 0.000000 0.000000 1.000000
v 1.718606 0.833708 0.015000 0.349020 0.125490 0.533333
vn 0.000000 0.000000 1.000000
v 1.607655 0.826396 0.015000 0.349020 0.125490 0.533333
vn 0.000000 0.000000 1.000000
v 1.713683 0.819496 0.015000 0.349020 0.125490 0.533333
vn 0.000000 0.000000 1.000000
v 1.614325 0.813082 0.015000 0.349020 0.125490 0.533333
vn 0.000000 0.000000 1.000000
v 1.705402 0.807224 0.015000 0.349020 0.125490 0.533333
vn 0.000000 0.000000 1.000000
v 1.624080 0.801997 0.015000 0.349020 0.125490 0.533333
vn 0.000000 0.000000 1.000000
v 1.694315 0.797471 0.015000 0.349020 0.125490 0.533333
vn 0.000000 0.000000 1.000000
v 1.636354 0.793717 0.015000 0.349020 0.125490 0.533333
vn 0.000000 0.000000 1.000000
v 1.680999 0.790803 0.015000 0.349020 0.125490 0.533333
vn 0.000000 0.000000 1.000000
v 1.650569 0.788796 0.015000 0.349020 0.125490 0.533333
vn 0.000000 0.000000 1.000000
v 1.666044 0.787763 0.015000 0.349020 0.125490 0.533333
vn 0.000000 0.000000 1.000000
v 1.792789 0.870973 0.015000 0.349020 0.125490 0.533333
vn 0.000000 0.000000 1.000000
v 1.823218 0.872980 0.015000 0.349020 0.125490 0.533333
vn 0.000000 0.000000 1.000000
v 1.807743 0.874012 0.015000 0.349020 0.125490 0.533333
vn 0.000000 0.000000 1.000000
v 1.837433 0.868059 0.015000 0.349020 0.125490 0.533333
vn 0.000000 0.000000 1.000000
v 1.779472 0.864304 0.015000 0.349020 0.125490 0.533333
vn 0.000000 0.000000 1.000000
v 1.849707 0.859778 0.015000 0.349020 0.125490 0.533333
vn 0.000000 0.000000 1.000000
v 1.768385 0.854551 0.015000 0.349020 0.125490 0.533333
vn 0.000000 0.000000 1.000000
v 1.859462 0.848694 0.015000 0.349020 0.125490 0.533333
vn 0.000000 0.000000 1.000000
v 1.760104 0.842280 0.015000 0.349020 0.125490 0.533333
vn 0.000000 0.000000 1.000000
v 1.866132 0.835380 0.015000 0.349020 0.125490 0.533333
vn 0.000000 0.000000 1.000000
v 1.755181 0.828067 0.015000 0.349020 0.125490 0.533333
vn 0.000000 0.000000 1.000000
v 1.869172 0.820429 0.015000 0.349020 0.125490 0.533333
vn 0.000000 0.000000 1.000000
v 1.754149 0.812596 0.015000 0.349020 0.125490 0.533333
vn 0.000000 0.000000 1.000000
v 1.868140 0.804958 0.015000 0.349020 0.125490 0.533333
vn 0.000000 0.000000 1.000000
v 1.757189 0.797645 0.015000 0.349020 0.125490 0.533333
vn 0.000000 0.000000 1.000000
v 1.863217 0.790745 0.015000 0.349020 0.125490 0.533333
vn 0.000000 0.000000 1.000000
v 1.763859 0.784331 0.015000 0.349020 0.125490 0.533333
vn 0.000000 0.000000 1.000000
v 1.854936 0.778474 0.015000 0.349020 0.125490 0.533333
vn 0.000000 0.000000 1.000000
v 1.773614 0.773247 0.015000 0.349020 0.125490 0.533333
vn 0.000000 0.000000 1.000000
v 1.843849 0.768721 0.015000 0.349020 0.125490 0.533333
vn 0.000000 0.000000 1.000000
v 1.785888 0.764966 0.015000 0.349020 0.125490 0.533333
vn 0.000000 0.000000 1.000000
v 1.830532 0.762053 0.015000 0.349020 0.125490 0.533333
vn 0.000000 0.000000 1.000000
v 1.800103 0.760045 0.015000 0.349020 0.125490 0.533333
vn 0.000000 0.000000 1.000000
v 1.815578 0.759013 0.015000 0.349020 0.125490 0.533333
# 80 vertices, 0 vertices normals

f 1//1 2//2 3//3
f 1//1 4//4 2//2
f 5//5 4//4 1//1
f 5//5 6//6 4//4
f 7//7 6//6 5//5
f 7//7 8//8 6//6
f 9//9 8//8 7//7
f 9//9 10//10 8//8
f 11//11 10//10 9//9
f 12//12 10//10 11//11
f 12//12 13//13 10//10
f 12//12 14//14 13//13
f 15//15 14//14 12//12
f 15//15 16//16 14//14
f 17//17 16//16 15//15
f 18//18 16//16 17//17
f 18//18 19//19 16//16
f 20//20 19//19 18//18
f 20//20 21//21 19//19
f 22//22 21//21 20//20
f 22//22 23//23 21//21
f 24//24 25//25 26//26
f 24//24 27//27 25//25
f 28//28 29//29 30//30
f 28//28 31//31 29//29
f 32//32 33//33 34//34
f 32//32 35//35 33//33
f 36//36 35//35 32//32
f 36//36 37//37 35//35
f 38//38 37//37 36//36
f 38//38 39//39 37//37
f 40//40 39//39 38//38
f 40//40 41//41 39//39
f 42//42 41//41 40//40
f 42//42 43//43 41//41
f 44//44 43//43 42//42
f 45//45 43//43 44//44
f 45//45 46//46 43//43
f 47//47 46//46 45//45
f 47//47 48//48 46//46
f 49//49 48//48 47//47
f 49//49 50//50 48//48
f 51//51 50//50 49//49
f 51//51 52//52 50//50
f 53//53 52//52 51//51
f 53//53 54//54 52//52
f 55//55 54//54 53//53
f 55//55 56//56 54//54
f 57//57 58//58 59//59
f 57//57 60//60 58//58
f 61//61 60//60 57//57
f 61//61 62//62 60//60
f 63//63 62//62 61//61
f 63//63 64//64 62//62
f 65//65 64//64 63//63
f 65//65 66//66 64//64
f 67//67 66//66 65//65
f 67//67 68//68 66//66
f 69//69 68//68 67//67
f 69//69 70//70 68//68
f 71//71 70//70 69//69
f 71//71 72//72 70//70
f 73//73 72//72 71//71
f 73//73 74//74 72//72
f 75//75 74//74 73//73
f 75//75 76//76 74//74
f 77//77 76//76 75//75
f 77//77 78//78 76//76
f 79//79 78//78 77//77
f 79//79 80//80 78//78
# 70 faces, 0 coords texture

# End of File
