####
#
# OBJ File Generated by Meshlab
#
####
# Object slug-min.obj
#
# Vertices: 25
# Faces: 15
#
####
vn 0.000000 0.000000 1.000000
v 0.132409 0.428752 0.015000 0.349020 0.125490 0.533333
vn 0.000000 0.000000 1.000000
v 1.782209 0.366557 0.015000 0.349020 0.125490 0.533333
vn 0.000000 0.000000 1.000000
v 1.033988 0.541630 0.015000 0.349020 0.125490 0.533333
vn 0.000000 0.000000 1.000000
v 0.019275 0.159233 0.015000 0.352941 0.129412 0.533333
vn 0.000000 0.000000 1.000000
v 1.761893 0.156534 0.015000 0.349020 0.125490 0.533333
vn 0.000000 0.000000 1.000000
v 1.051881 -0.006375 0.015000 0.349020 0.125490 0.533333
vn 0.000000 0.000000 1.000000
v 1.495339 0.412039 0.010000 0.690196 0.694118 0.258824
vn 0.000000 0.000000 1.000000
v 1.666999 0.830381 0.010000 0.682353 0.686275 0.215686
vn 0.000000 0.000000 1.000000
v 1.611446 0.845263 0.010000 0.682353 0.686275 0.215686
vn 0.000000 0.000000 1.000000
v 1.550893 0.397156 0.010000 0.686275 0.690196 0.239216
vn 0.000000 0.000000 1.000000
v 1.616119 0.395054 0.010000 0.690196 0.694118 0.250980
vn 0.000000 0.000000 1.000000
v 1.823594 0.796846 0.010000 0.682353 0.686275 0.219608
vn 0.000000 0.000000 1.000000
v 1.769549 0.816513 0.010000 0.682353 0.686275 0.219608
vn 0.000000 0.000000 1.000000
v 1.670163 0.375388 0.010000 0.686275 0.690196 0.223529
vn 0.000000 0.000000 1.000000
v 1.605854 0.827314 0.015000 0.349020 0.125490 0.533333
vn 0.000000 0.000000 1.000000
v 1.709532 0.886726 0.015000 0.349020 0.125490 0.533333
vn 0.000000 0.000000 1.000000
v 1.620944 0.892857 0.015000 0.349020 0.125490 0.533333
vn 0.000000 0.000000 1.000000
v 1.712046 0.812041 0.015000 0.349020 0.125490 0.533333
vn 0.000000 0.000000 1.000000
v 1.650305 0.784941 0.015000 0.349020 0.125490 0.533333
vn 0.000000 0.000000 1.000000
v 1.770186 0.863907 0.015000 0.349020 0.125490 0.533333
vn 0.000000 0.000000 1.000000
v 1.868647 0.828029 0.015000 0.349020 0.125490 0.533333
vn 0.000000 0.000000 1.000000
v 1.844891 0.866421 0.015000 0.349020 0.125490 0.533333
vn 0.000000 0.000000 1.000000
v 1.754673 0.804996 0.015000 0.349020 0.125490 0.533333
vn 0.000000 0.000000 1.000000
v 1.853135 0.769119 0.015000 0.349020 0.125490 0.533333
vn 0.000000 0.000000 1.000000
v 1.778430 0.766605 0.015000 0.349020 0.125490 0.533333
# 25 vertices, 0 vertices normals

f 1//1 2//2 3//3
f 4//4 2//2 1//1
f 4//4 5//5 2//2
f 4//4 6//6 5//5
f 7//7 8//8 9//9
f 7//7 10//10 8//8
f 11//11 12//12 13//13
f 11//11 14//14 12//12
f 15//15 16//16 17//17
f 15//15 18//18 16//16
f 19//19 18//18 15//15
f 20//20 21//21 22//22
f 23//23 21//21 20//20
f 23//23 24//24 21//21
f 25//25 24//24 23//23
# 15 faces, 0 coords texture

# End of File
