# Blender v2.91.2 OBJ File: ''
# www.blender.org
mtllib block-min.mtl
o wall
v 0.039399 0.014108 0.000000
v 0.007761 0.014108 0.000000
v 0.007803 0.013485 0.000000
v 0.039358 0.013485 0.000000
v 0.039237 0.012888 0.000000
v 0.007926 0.012888 0.000000
v 0.039042 0.012323 0.000000
v 0.008122 0.012323 0.000000
v 0.008388 0.011795 0.000000
v 0.038778 0.011795 0.000000
v 0.008718 0.011309 0.000000
v 0.038451 0.011309 0.000000
v 0.009105 0.010871 0.000000
v 0.038066 0.010871 0.000000
v 0.009545 0.010485 0.000000
v 0.037627 0.010485 0.000000
v 0.010032 0.010158 0.000000
v 0.037141 0.010158 0.000000
v 0.010559 0.009894 0.000000
v 0.036613 0.009894 0.000000
v 0.011123 0.009700 0.000000
v 0.036048 0.009700 0.000000
v 0.035450 0.009579 0.000000
v 0.011716 0.009579 0.000000
v 0.034827 0.009537 0.000000
v 0.012333 0.009537 0.000000
v 0.010909 0.041135 0.000000
v 0.011402 0.041168 0.000000
v 0.035758 0.041168 0.000000
v 0.036251 0.041135 0.000000
v 0.010437 0.041038 0.000000
v 0.036724 0.041038 0.000000
v 0.009988 0.040881 0.000000
v 0.037173 0.040881 0.000000
v 0.009568 0.040670 0.000000
v 0.037593 0.040670 0.000000
v 0.009180 0.040408 0.000000
v 0.037980 0.040408 0.000000
v 0.008830 0.040100 0.000000
v 0.038330 0.040100 0.000000
v 0.008522 0.039750 0.000000
v 0.038638 0.039750 0.000000
v 0.008260 0.039362 0.000000
v 0.038900 0.039362 0.000000
v 0.008048 0.038942 0.000000
v 0.039112 0.038942 0.000000
v 0.007892 0.038494 0.000000
v 0.039268 0.038494 0.000000
v 0.007795 0.038021 0.000000
v 0.039366 0.038021 0.000000
v 0.007761 0.037528 0.000000
v 0.039399 0.037528 0.000000
vn 0.0000 -0.0000 1.0000
usemtl Default_OBJ
s off
f 3//1 6//1 8//1 9//1 11//1 13//1 15//1 17//1 19//1 21//1 24//1 26//1 25//1 23//1 22//1 20//1 18//1 16//1 14//1 12//1 10//1 7//1 5//1 4//1 1//1 52//1 50//1 48//1 46//1 44//1 42//1 40//1 38//1 36//1 34//1 32//1 30//1 29//1 28//1 27//1 31//1 33//1 35//1 37//1 39//1 41//1 43//1 45//1 47//1 49//1 51//1 2//1
